<svg xmlns="http://www.w3.org/2000/svg" width="48" height="49" viewBox="0 0 48 49" fill="none">
  <path d="M41 9.5C41.3716 9.5 41.7196 9.60136 42.0177 9.77795L24.006 25.1814L6.09173 9.71766C6.36428 9.57849 6.67297 9.5 7 9.5H41Z" fill="#1E3050"/>
  <path d="M5 11.5C5 11.4728 5.00054 11.4457 5.00162 11.4187L19.5833 24.0058L5.00104 37.565C5.00035 37.5434 5 37.5217 5 37.5V11.5Z" fill="#1E3050"/>
  <path d="M6.09137 39.2822C6.36401 39.4214 6.67283 39.5 7 39.5H41C41.1747 39.5 41.3442 39.4776 41.5057 39.4355L26.9159 25.3245L25.3058 26.7013C24.5548 27.3436 23.4472 27.3411 22.6991 26.6953L21.1065 25.3205L6.09137 39.2822Z" fill="#1E3050"/>
  <path d="M28.4427 24.0188L42.9291 38.0298C42.9753 37.8611 43 37.6834 43 37.5V11.5695L28.4427 24.0188Z" fill="#1E3050"/>
</svg>