<svg xmlns="http://www.w3.org/2000/svg" width="48" height="49" viewBox="0 0 48 49" fill="none">
  <path d="M19.9462 20.0242L5.10764 10.851C5.03787 11.0545 5 11.2728 5 11.5V31.5C5 32.6046 5.89543 33.5 7 33.5H35C36.1046 33.5 37 32.6046 37 31.5V11.5C37 11.2493 36.9539 11.0095 36.8697 10.7884L22.0557 20.0204C21.4104 20.4225 20.5929 20.424 19.9462 20.0242Z" fill="#1E3050"/>
  <path d="M7 9.5C6.91554 9.5 6.83231 9.50523 6.75061 9.5154L20.9979 18.323L35.147 9.50532C35.0985 9.50179 35.0494 9.5 35 9.5H7Z" fill="#1E3050"/>
  <path d="M43.5 14.5C43.5 13.6716 42.8284 13 42 13C41.1716 13 40.5 13.6716 40.5 14.5V37H10C9.17157 37 8.5 37.6716 8.5 38.5C8.5 39.3284 9.17157 40 10 40H41C42.3807 40 43.5 38.8807 43.5 37.5V14.5Z" fill="#1E3050"/>
</svg>