<svg xmlns="http://www.w3.org/2000/svg" width="48" height="49" viewBox="0 0 48 49" fill="none">
  <path d="M35.8541 9.69105C35.5951 9.56853 35.3056 9.5 35 9.5H7C6.72972 9.5 6.47196 9.55361 6.23677 9.65079L21.0027 19.3074L35.8541 9.69105Z" fill="#1E3050"/>
  <path d="M5.01643 11.2424C5.00559 11.3268 5 11.4127 5 11.5V31.5C5 32.6046 5.89543 33.5 7 33.5H35C36.1046 33.5 37 32.6046 37 31.5V11.5C37 11.4448 36.9978 11.3901 36.9934 11.336L22.0897 20.9862C21.4255 21.4162 20.5703 21.4143 19.908 20.9812L5.01643 11.2424Z" fill="#1E3050"/>
  <path d="M9 37.5V35.5H35C37.2091 35.5 39 33.7091 39 31.5V13.5H41C42.1046 13.5 43 14.3954 43 15.5V37.5C43 38.6046 42.1046 39.5 41 39.5H11C9.89543 39.5 9 38.6046 9 37.5Z" fill="#1E3050"/>
</svg>